<svg xmlns="http://www.w3.org/2000/svg" viewBox="0 0 337.24 85.95">
  <g id="Layer_1" data-name="Layer 1">
    <g id="flat">
      <path d="M287,31.15a2.42,2.42,0,0,1-2.42-2.42V19.06a2.42,2.42,0,1,1,4.84,0v9.67A2.42,2.42,0,0,1,287,31.15Z" fill="#b11e48"/>
      <rect x="267.62" y="28.73" width="38.7" height="38.7" rx="7.26" fill="#4da6ea"/>
      <circle cx="286.97" cy="11.8" r="7.26" fill="#fcf05a"/>
      <path d="M277.3,67.43h19.34V77.1H277.3Z" fill="#f9bb4b"/>
      <path d="M291.81,38.41A9.56,9.56,0,0,0,287,39.75a9.56,9.56,0,0,0-4.84-1.34,9.68,9.68,0,0,0,0,19.35A9.57,9.57,0,0,0,287,56.41a9.57,9.57,0,0,0,4.84,1.35,9.68,9.68,0,0,0,0-19.35Z" fill="#fcf05a"/>
      <path d="M279.71,45.66h4.84V50.5h-4.84Z" fill="#195c85"/>
      <path d="M289.39,45.66h4.84V50.5h-4.84Z" fill="#195c85"/>
      <g>
        <path d="M43.24,51.75c-.36.09-1.07.33-1.35.39-.08-.42-.12-.78-.16-1.12s-.11-1.05-.2-1.5c0-.13-.06-.7-.08-1a27.88,27.88,0,0,0-.37,3c-.39.09-.89.18-1.1.22,0-.13-.09-.35-.16-.71s-.18-.9-.3-1.36c-.08-.23-.19-.6-.27-.85,0,.22-.07,1.22-.08,1.44s0,.67,0,1a6.42,6.42,0,0,1-.09,1.18l-1.25-.11c.09-.62.09-1.21.15-1.82.06-.82.11-1.65.09-2.86,0-.43,0-.88,0-1.25v-.49a16,16,0,0,1,1.59-.34c.16.65.29,1.24.5,1.84,0,0,.14.37.2.49.11-.39.18-.62.21-.71.13-.56.21-1.06.29-1.64.18-.05.87-.14,1-.17a4.28,4.28,0,0,1,.65-.08c0,.65.05,1.26.14,2,.06.49.12,1.59.24,2.48,0,.39.17,1.09.22,1.39S43.21,51.65,43.24,51.75Z" fill="#231f20"/>
        <path d="M47.82,48.46a6.56,6.56,0,0,1-.15,1.61,2.83,2.83,0,0,1-.36.9,2.48,2.48,0,0,1-.66.78,1.3,1.3,0,0,1-.87.33l-.39,0a2.56,2.56,0,0,1-1.86-2.52,5.92,5.92,0,0,1,.52-2.7,2.41,2.41,0,0,1,1.53-1.35,1.62,1.62,0,0,1,1.38.58,3.35,3.35,0,0,1,.57,1A4.65,4.65,0,0,1,47.82,48.46ZM46.5,48.4a1.86,1.86,0,0,0-.07-.49c-.06-.33-.4-1.2-.87-.9a2.05,2.05,0,0,0-.62,1.21,4.16,4.16,0,0,0-.09.94A3.11,3.11,0,0,0,45,50c.1.27.47.88.83.73s.51-.75.61-1.07A8.86,8.86,0,0,0,46.5,48.4Z" fill="#231f20"/>
        <path d="M52.58,45.41c-.12.38-.58,2.24-.68,2.59-.18.62-.31,1.47-.48,2.11-.1.36-.17.72-.25,1.1l-.14.87a10.46,10.46,0,0,1-1.54.16c-.08-.34-.13-.71-.22-1.08-.16-.67-.3-1.37-.45-2-.07-.38-.11-.75-.19-1.16s-.32-1.7-.44-2.19c.11,0,1.28-.36,1.28-.38.18.49.39,2.16.47,2.56s.26,1.45.33,1.91c.09-.5.22-1.18.32-1.66s.17-.8.23-1.09.34-1.79.41-2A9.13,9.13,0,0,1,52.58,45.41Z" fill="#231f20"/>
        <path d="M56.21,51.64c-.77.23-1.52.33-2.25.5l-.61.15c0-.19,0-.37,0-.56s0-.29,0-.44c0-.65,0-1.37.06-2,0-.2,0-.55,0-1s0-.54,0-.82a2.87,2.87,0,0,1,0-.42l-.44.13a6.17,6.17,0,0,1-.16-1.36c.28-.07.49-.12.75-.21l1.17-.28c.49-.13,1.26-.27,1.78-.4a11,11,0,0,1,.16,1.33l-.49.11-1.55.36V47c0,.55,0,.68,0,1.24v.2l.61-.14c.41-.09.49-.09.94-.17a7.76,7.76,0,0,1,.09,1.38l-.65.09c-.51.11-.61.1-1,.21,0,.24,0,.38,0,.55s0,.23,0,.4c.44-.12.83-.18,1.23-.28s.41-.12.86-.22c0,.31,0,.79,0,1.28A5,5,0,0,0,56.21,51.64Z" fill="#231f20"/>
        <path d="M81,46.22c0,.78,0,1.52,0,2.28,0,.55,0,1.09,0,1.54s0,.62,0,.92c0,.15,0,.3,0,.46v.24a6.77,6.77,0,0,1-1.32.12c0-.23,0-.5,0-.71a4.86,4.86,0,0,0,0-.54c0-.24,0-.49,0-.76s0-.75,0-1.17,0-1,0-1.42c0-.25,0-.49,0-.69l-1.18.3c-.06-.35-.1-1-.14-1.26.29-.11.61-.21.9-.3s.53-.13.79-.17c.46-.09.92-.17,1.37-.29a3.49,3.49,0,0,1,.74-.09c0,.25.09.84.11,1.28-.15,0-.32.08-.48.12Z" fill="#231f20"/>
        <path d="M87,48a6.62,6.62,0,0,1-.15,1.61,2.78,2.78,0,0,1-.36.89,2.41,2.41,0,0,1-.66.79,1.29,1.29,0,0,1-.87.32,1.25,1.25,0,0,1-.38,0A2.55,2.55,0,0,1,82.69,49a5.79,5.79,0,0,1,.53-2.7A2.38,2.38,0,0,1,84.75,45a1.6,1.6,0,0,1,1.37.58,3.47,3.47,0,0,1,.58,1A5,5,0,0,1,87,48Zm-1.32-.07a1.51,1.51,0,0,0-.07-.49c-.06-.32-.4-1.19-.87-.9a2.11,2.11,0,0,0-.62,1.22,4.16,4.16,0,0,0-.09.94,3.17,3.17,0,0,0,.12.83c.1.27.47.88.83.73s.52-.75.61-1.08A7.44,7.44,0,0,0,85.66,47.88Z" fill="#231f20"/>
        <path d="M91.89,46.08c0,.78,0,1.52,0,2.27,0,.56,0,1.1,0,1.55s0,.61,0,.91v.47a1.85,1.85,0,0,1,0,.24,6.73,6.73,0,0,1-1.32.11c0-.22,0-.49,0-.7v-.54c0-.24,0-.5,0-.76s0-.75,0-1.17,0-1,0-1.42c0-.25,0-.49,0-.7-.39.12-.77.21-1.17.31-.06-.35-.11-1-.15-1.26.3-.11.61-.21.91-.3s.53-.14.79-.18c.45-.09.92-.17,1.36-.28a3.58,3.58,0,0,1,.75-.09c0,.25.09.84.11,1.28a4.15,4.15,0,0,1-.48.11C92.42,46,92.15,46,91.89,46.08Z" fill="#231f20"/>
        <path d="M97.15,51.06c-.44.09-1,.18-1.28.21,0-.69,0-1.31,0-1.94L95,49.5c0,.57,0,1.38,0,1.94a10.91,10.91,0,0,1-1.34.27c0-.21,0-.44,0-.64,0-.76.06-1.52,0-2.28l0-1.95c0-.39,0-1.41,0-1.8.28-.07.71-.16,1.19-.23,0,.11,0,.89,0,1v.53c0,.76,0,1.36,0,2,.27-.06.61-.16.9-.21v-.22c0-.45,0-.82,0-1.21,0-.2,0-.41,0-.63s0-.5,0-.81,0-.46,0-.56A6.75,6.75,0,0,1,97,44.42c0,.16,0,.89,0,1s0,.41,0,.6c0,.47,0,.93,0,1.41,0,.22,0,.43,0,.65,0,.4,0,.77,0,1.15,0,.22,0,.45,0,.66s0,.45,0,.79Z" fill="#231f20"/>
        <path d="M101,51.06c-.78.22-1.52.33-2.25.49l-.61.15a3.51,3.51,0,0,1,0-.56c0-.14,0-.29,0-.43,0-.66,0-1.38.05-2,0-.21,0-.55,0-1,0-.25,0-.54,0-.82s0-.15,0-.42l-.45.13a6.73,6.73,0,0,1-.16-1.35c.29-.08.49-.13.75-.22l1.18-.28c.49-.12,1.25-.27,1.78-.39a10.46,10.46,0,0,1,.16,1.33,3.54,3.54,0,0,0-.49.1c-.59.14-.91.2-1.56.37,0,.07,0,.15,0,.23,0,.55,0,.68,0,1.23v.2c.2,0,.41-.08.61-.14.4-.08.49-.08.93-.16a7.64,7.64,0,0,1,.09,1.37c-.23,0-.49.06-.64.1-.52.1-.61.09-1,.2v.55a3.11,3.11,0,0,0,0,.4l1.23-.28.86-.22c0,.32,0,.8,0,1.29A3.87,3.87,0,0,0,101,51.06Z" fill="#231f20"/>
        <path d="M108.09,50.89a6.14,6.14,0,0,1-1,.89,3,3,0,0,1-.29-.31,2.87,2.87,0,0,1-.39-.59,7,7,0,0,1-.32-.66c0-.09-.39-.87-.39-.87a2.41,2.41,0,0,0-.25.11c0,.29,0,.72,0,1s0,.54.06.84a4.69,4.69,0,0,1-1.34.21c0-.12,0-.26,0-.38s0-.43,0-.63,0-.53,0-.79c0-.45,0-.87,0-1.3,0-.28,0-1.08,0-1.42s0-.92,0-1.29c-.15,0-.32,0-.47,0,0-.17,0-.4,0-.57a3.15,3.15,0,0,1,.09-.72l.6,0c.25,0,.48.06.71.09a3.68,3.68,0,0,1,2.33,1.2,4.19,4.19,0,0,1,.4.54,1.15,1.15,0,0,1,.17.48,1.49,1.49,0,0,1-.49,1.47,3.82,3.82,0,0,1-.67.51,12.81,12.81,0,0,0,.57,1.32,4.22,4.22,0,0,0,.36.54C107.89,50.68,108,50.78,108.09,50.89ZM105.72,46a1.31,1.31,0,0,0-.26-.09c0,.23,0,.47,0,.72v1.43a4.21,4.21,0,0,0,.68-.33c.48-.31.63-.55.63-.76a.79.79,0,0,0-.26-.49A2,2,0,0,0,105.72,46Z" fill="#231f20"/>
        <path d="M110,51a11.24,11.24,0,0,1-1.29.26c0-.2,0-.42,0-.6,0-.72,0-1.44,0-2.16,0-.91,0-.93,0-1.84,0-.37,0-1.56,0-1.92.27-.06.72-.15,1.18-.22,0,.42,0,.63,0,.93,0,.79,0,1.54.06,2.35v.41C109.91,49.15,110,50.09,110,51Z" fill="#231f20"/>
        <path d="M111.85,48.48c-.08.63.33,1.68,1,1.82.18,0,.4-.07.58-.4a3.08,3.08,0,0,0,.16-.89,1.19,1.19,0,0,0-.27.07l-.4.16a2,2,0,0,1-.25.11c-.13-.29-.38-1-.44-1.19a3.36,3.36,0,0,1,.91-.38,6.61,6.61,0,0,1,.76-.22c.17,0,.6-.1.78-.12a8.74,8.74,0,0,1,.15,1.33,3.38,3.38,0,0,1-.2,1.27,3.14,3.14,0,0,1-.73,1.15,1.16,1.16,0,0,1-.83.33,2.76,2.76,0,0,1-.57-.06,2.42,2.42,0,0,1-1.57-1.35,2.94,2.94,0,0,1-.35-1.75,10.65,10.65,0,0,1,.36-1.68,5.24,5.24,0,0,1,1.09-1.8,2.28,2.28,0,0,1,1.59-.65c.19,0,.46.31.51.39a2.32,2.32,0,0,1,.17,1c0,.31,0,1,0,1a4.21,4.21,0,0,1-1.26.21s0-.67,0-1-.28,0-.35.13a3.37,3.37,0,0,0-.39.67A6.63,6.63,0,0,0,111.85,48.48Z" fill="#231f20"/>
        <path d="M118.85,50.77c-.44.09-1,.18-1.28.21,0-.68,0-1.31,0-1.93-.25,0-.56.09-.88.17,0,.56,0,1.38,0,1.94a11.7,11.7,0,0,1-1.34.27c0-.22,0-.44,0-.65,0-.75.07-1.51.06-2.28l0-1.94c0-.4,0-1.42,0-1.8a9.49,9.49,0,0,1,1.18-.23v1c0,.21,0,.38,0,.53,0,.75,0,1.35.05,2,.26-.06.61-.16.9-.22V46.39c0-.21,0-.41,0-.64s0-.49,0-.8a5,5,0,0,1,0-.56,6.46,6.46,0,0,1,1.23-.25c0,.16,0,.89,0,1s0,.41,0,.6c0,.47,0,.94,0,1.42,0,.22,0,.43,0,.65,0,.39,0,.76,0,1.15,0,.21,0,.44,0,.66s0,.44,0,.79Z" fill="#231f20"/>
        <path d="M121.85,45.68c0,.78,0,1.53,0,2.28,0,.55,0,1.09,0,1.55,0,.3,0,.61,0,.91v.47a1.77,1.77,0,0,1,0,.24,6.73,6.73,0,0,1-1.32.11c0-.23,0-.49,0-.71s0-.34,0-.54,0-.49,0-.75,0-.76,0-1.18,0-1,0-1.41c0-.25,0-.49,0-.7-.39.12-.77.2-1.17.31-.06-.35-.11-1-.15-1.26.3-.11.61-.21.91-.3s.53-.14.79-.18c.45-.09.92-.17,1.36-.28a4.38,4.38,0,0,1,.75-.1c0,.26.09.84.11,1.29-.16,0-.32.07-.48.11Z" fill="#231f20"/>
        <path d="M127.94,45.6c0,.78,0,1.53,0,2.28,0,.55,0,1.09,0,1.55,0,.3,0,.61,0,.91s0,.3,0,.47v.24a6.63,6.63,0,0,1-1.31.11c0-.23,0-.49,0-.71s0-.34,0-.54,0-.49,0-.75,0-.76,0-1.18,0-1,0-1.41c0-.25,0-.49,0-.7-.4.12-.78.2-1.17.31-.07-.35-.11-1-.15-1.26.3-.11.61-.21.91-.3s.52-.14.79-.18c.45-.09.92-.17,1.36-.28a4.4,4.4,0,0,1,.74-.1,12,12,0,0,1,.11,1.29c-.15,0-.32.07-.47.11Z" fill="#231f20"/>
        <path d="M133.94,47.34A6.73,6.73,0,0,1,133.8,49a3.14,3.14,0,0,1-.36.89,2.54,2.54,0,0,1-.67.79,1.29,1.29,0,0,1-.87.32l-.38,0a2.56,2.56,0,0,1-1.87-2.52,5.75,5.75,0,0,1,.53-2.69,2.43,2.43,0,0,1,1.53-1.36,1.62,1.62,0,0,1,1.37.59,3.2,3.2,0,0,1,.58,1A5,5,0,0,1,133.94,47.34Zm-1.32-.07a1.75,1.75,0,0,0-.06-.49c-.07-.32-.4-1.2-.88-.9a2.05,2.05,0,0,0-.62,1.22A3.66,3.66,0,0,0,131,48a2.43,2.43,0,0,0,.12.83c.1.28.46.88.82.73s.52-.75.61-1.07A6.63,6.63,0,0,0,132.62,47.27Z" fill="#231f20"/>
        <path d="M140.5,46.91a2.47,2.47,0,0,1-.82,1.17,8.36,8.36,0,0,1-1.47,1l-.22.12c0,.26,0,.51,0,.86,0,.16.06.57.06.87a8,8,0,0,1-1.36.19c0-.39,0-.78,0-1.31,0-.29,0-.56,0-.83,0-.68,0-1.38,0-2s0-1,0-1.52l-.5-.06a7.36,7.36,0,0,1,.1-1.34l.39,0a7.86,7.86,0,0,1,2.17.48,3.15,3.15,0,0,1,1.26,1.1A2,2,0,0,1,140.5,46.91Zm-2.44-1.28A7.27,7.27,0,0,0,138,46.7c0,.32,0,.64,0,1a7.85,7.85,0,0,0,1.14-.83C139.49,46.34,138.48,45.79,138.06,45.63Z" fill="#231f20"/>
        <path d="M143.74,49.65l-1.4.25c-.1.51-.24,1.13-.27,1.25a4.66,4.66,0,0,1-1.34-.35c.13-.34.6-2.13.68-2.48a24.6,24.6,0,0,0,.69-4.13c.19,0,.73-.15.92-.17s.54-.11.79-.12c.09.39.11.79.2,1.18.18.74.34,1.5.49,2.24.09.42.21.81.32,1.21s.35,1.49.47,1.93a9.61,9.61,0,0,1-1.33.37C143.9,50.49,143.82,50.07,143.74,49.65Zm-1.12-1.12.86-.12c-.08-.51-.37-1.72-.44-2.21C143,46.8,142.69,48,142.62,48.53Z" fill="#231f20"/>
        <path d="M149.65,49.25a1.67,1.67,0,0,1-.94,1.52,2.69,2.69,0,0,1-.94.22,3.06,3.06,0,0,1-1.19-.12,1.92,1.92,0,0,1-.69-.5,1.18,1.18,0,0,1-.23-.28,1.71,1.71,0,0,1-.17-.76,1.28,1.28,0,0,1,.08-.5,8.29,8.29,0,0,1,1.27,0,.75.75,0,0,0,.09.62.84.84,0,0,0,.63.26,1,1,0,0,0,.72-.26c.2-.22-.49-.57-.87-.81a14.13,14.13,0,0,1-1.27-.86,1.91,1.91,0,0,1-.53-1.42,1.79,1.79,0,0,1,.09-.63,2.83,2.83,0,0,1,2.38-2,1.11,1.11,0,0,1,1,.54,2.43,2.43,0,0,1,.19,1.14,8.75,8.75,0,0,1-.06,1.34,4.89,4.89,0,0,1-.54,0,6.36,6.36,0,0,1-.69,0c0-.12,0-1,0-1.08a2.37,2.37,0,0,0,0-.51,1.5,1.5,0,0,0-1,.75,1.3,1.3,0,0,0-.07.4c0,.54.51.7,1.06,1.1s.82.47,1.21.82A1.35,1.35,0,0,1,149.65,49.25Z" fill="#231f20"/>
        <path d="M154.2,49.19a1.67,1.67,0,0,1-.94,1.52,2.69,2.69,0,0,1-.94.22,3,3,0,0,1-1.19-.12,1.92,1.92,0,0,1-.69-.5,1.18,1.18,0,0,1-.24-.28,1.86,1.86,0,0,1-.16-.76,1.28,1.28,0,0,1,.08-.5,8.33,8.33,0,0,1,1.27,0,.71.71,0,0,0,.09.62.84.84,0,0,0,.63.26,1,1,0,0,0,.71-.26c.2-.22-.48-.57-.86-.81a12.83,12.83,0,0,1-1.27-.86,1.83,1.83,0,0,1-.53-1.42,2.1,2.1,0,0,1,.08-.63,2.83,2.83,0,0,1,2.39-2,1.12,1.12,0,0,1,1,.54,2.43,2.43,0,0,1,.19,1.14,12.64,12.64,0,0,1-.06,1.35l-.54,0c-.32,0-.53,0-.69,0,0-.12.05-1,.05-1.08a1.83,1.83,0,0,0-.06-.51,1.52,1.52,0,0,0-1,.75,1.25,1.25,0,0,0-.06.4c0,.54.51.7,1.05,1.1a13.47,13.47,0,0,1,1.21.82A1.32,1.32,0,0,1,154.2,49.19Z" fill="#231f20"/>
        <path d="M160.85,47a6.16,6.16,0,0,1-.14,1.61,3.09,3.09,0,0,1-.36.9,2.5,2.5,0,0,1-.66.78,1.32,1.32,0,0,1-.87.33,2.66,2.66,0,0,1-.39,0,2.57,2.57,0,0,1-1.87-2.52,5.79,5.79,0,0,1,.53-2.7A2.44,2.44,0,0,1,158.62,44a1.62,1.62,0,0,1,1.38.58,3.35,3.35,0,0,1,.57,1A5,5,0,0,1,160.85,47Zm-1.32-.06a1.75,1.75,0,0,0-.06-.49c-.07-.33-.4-1.2-.88-.9a2.11,2.11,0,0,0-.62,1.22,4.73,4.73,0,0,0-.08.93,2.47,2.47,0,0,0,.12.83c.1.27.47.88.82.73s.52-.75.61-1.07A6.63,6.63,0,0,0,159.53,46.92Z" fill="#231f20"/>
        <path d="M163.84,49.91c0-.09-.13-.3-.3-.77A8.94,8.94,0,0,0,163,48c-.07-.13-.18-.27-.24-.39,0,.31,0,.62,0,.92,0,.53,0,1,.08,1.57q0,.22,0,.54a8.26,8.26,0,0,1-1.25.09c0-.48,0-1,0-1.45,0-.66,0-1.14-.06-1.8s0-1.15,0-1.73c0-.28,0-1,0-1.43.38-.09.78-.19,1.22-.28a9,9,0,0,0,1.11,2.82c0-.82-.06-1.66-.12-2.51,0-.21,0-.5,0-.68a8.91,8.91,0,0,1,1.27-.2c0,1.16,0,2.47,0,3.79a21.41,21.41,0,0,0,.27,2.93,6.89,6.89,0,0,1-1.18.33C164,50.41,163.87,50,163.84,49.91Z" fill="#231f20"/>
        <path d="M173,50.05c-.36.09-1.08.33-1.35.39-.08-.42-.12-.78-.16-1.12s-.11-1-.2-1.5c0-.13-.06-.7-.08-1a25.54,25.54,0,0,0-.37,3c-.39.09-.89.18-1.1.22,0-.13-.09-.35-.16-.71s-.18-.89-.3-1.36c-.08-.23-.19-.6-.27-.85,0,.22-.08,1.23-.09,1.44s0,.67,0,.95a7.34,7.34,0,0,1-.09,1.18l-1.25-.11c.09-.62.09-1.21.14-1.82.07-.82.11-1.65.1-2.86,0-.43,0-.87,0-1.25v-.49a15.4,15.4,0,0,1,1.59-.34,19,19,0,0,0,.5,1.84s.14.37.2.49c.11-.39.18-.62.21-.71.13-.56.21-1.06.29-1.64.18,0,.87-.14,1-.17s.43-.07.65-.08c0,.65.05,1.26.14,2,.06.49.12,1.6.24,2.48.05.4.17,1.09.22,1.39S173,50,173,50.05Z" fill="#231f20"/>
        <path d="M177.56,46.77a6.67,6.67,0,0,1-.15,1.61,2.87,2.87,0,0,1-.36.89,2.51,2.51,0,0,1-.66.79,1.34,1.34,0,0,1-.87.32l-.39,0a2.55,2.55,0,0,1-1.86-2.52,5.75,5.75,0,0,1,.52-2.69,2.43,2.43,0,0,1,1.53-1.36,1.65,1.65,0,0,1,1.38.59,3.17,3.17,0,0,1,.57,1A5,5,0,0,1,177.56,46.77Zm-1.32-.07a2.43,2.43,0,0,0-.07-.49c-.06-.32-.4-1.2-.88-.9a2.1,2.1,0,0,0-.61,1.22,4.12,4.12,0,0,0-.09.93,3,3,0,0,0,.12.83c.1.27.47.88.83.73s.51-.75.61-1.07A8.86,8.86,0,0,0,176.24,46.7Z" fill="#231f20"/>
        <path d="M182.3,49.92a6.14,6.14,0,0,1-1,.89c-.09-.09-.19-.19-.29-.31a3.09,3.09,0,0,1-.39-.6c-.07-.13-.19-.35-.32-.65-.05-.1-.38-.87-.38-.87a1.72,1.72,0,0,0-.25.11c0,.29,0,.72,0,1s0,.54.06.84a4,4,0,0,1-1.34.21c0-.12,0-.25,0-.37s0-.43,0-.63,0-.53,0-.8c0-.44,0-.86,0-1.29s0-1.08,0-1.42,0-.92,0-1.29c-.15,0-.32,0-.47,0,0-.17,0-.4,0-.57a3.08,3.08,0,0,1,.09-.72l.6,0c.25,0,.48.05.71.09a3.63,3.63,0,0,1,2.33,1.2,3,3,0,0,1,.4.54,1.28,1.28,0,0,1,.18.47,1.51,1.51,0,0,1-.5,1.47,3.43,3.43,0,0,1-.67.52,12.81,12.81,0,0,0,.57,1.32,5.07,5.07,0,0,0,.36.54C182.1,49.7,182.21,49.81,182.3,49.92ZM179.94,45a1.07,1.07,0,0,0-.27-.09c0,.22,0,.46,0,.72s0,1,0,1.42a3.44,3.44,0,0,0,.68-.32c.48-.32.64-.56.63-.76a.83.83,0,0,0-.25-.49A2.18,2.18,0,0,0,179.94,45Z" fill="#231f20"/>
        <path d="M186,49.94c-.78.23-1.52.33-2.25.5l-.61.15a3.51,3.51,0,0,1,0-.56c0-.15,0-.29,0-.43,0-.66,0-1.38.06-2,0-.21,0-.56,0-1s0-.54,0-.82,0-.16,0-.42l-.45.13a6.75,6.75,0,0,1-.16-1.36,7.39,7.39,0,0,0,.75-.21l1.18-.28c.49-.13,1.25-.27,1.78-.4a11,11,0,0,1,.16,1.33l-.49.11c-.59.14-.91.2-1.56.37a1.62,1.62,0,0,1,0,.22c0,.55,0,.69,0,1.24v.2l.61-.14c.41-.09.49-.09.93-.17a7.83,7.83,0,0,1,.09,1.38l-.64.09c-.52.11-.62.1-1,.21v.55a3.11,3.11,0,0,0,0,.4c.44-.12.82-.18,1.23-.28s.41-.12.86-.22c0,.31.05.79,0,1.28A3.87,3.87,0,0,0,186,49.94Z" fill="#231f20"/>
        <path d="M193,48.69a1.66,1.66,0,0,1-.94,1.51,3,3,0,0,1-.94.23,2.87,2.87,0,0,1-1.19-.13,1.81,1.81,0,0,1-.69-.5,1.18,1.18,0,0,1-.23-.28,1.84,1.84,0,0,1-.17-.75,1.33,1.33,0,0,1,.08-.51,8.29,8.29,0,0,1,1.27,0,.75.75,0,0,0,.09.62.84.84,0,0,0,.63.26,1,1,0,0,0,.72-.26c.2-.22-.49-.57-.87-.81a14,14,0,0,1-1.27-.85,2,2,0,0,1-.53-1.43,1.79,1.79,0,0,1,.09-.63,2.81,2.81,0,0,1,2.38-1.95,1.08,1.08,0,0,1,1,.53,2.59,2.59,0,0,1,.2,1.14,10.53,10.53,0,0,1-.07,1.35l-.54,0c-.31,0-.53,0-.68,0s0-1,0-1.08a2.27,2.27,0,0,0,0-.5,1.5,1.5,0,0,0-1,.74,1.62,1.62,0,0,0-.06.4c0,.54.51.7,1.06,1.1s.82.47,1.21.82A1.31,1.31,0,0,1,193,48.69Z" fill="#231f20"/>
        <path d="M196.7,49.8c-.77.23-1.52.33-2.25.5l-.6.15a5.27,5.27,0,0,1,0-.56c0-.15,0-.29,0-.43,0-.66,0-1.38.06-2,0-.21,0-.56,0-1s0-.54,0-.82a2.87,2.87,0,0,1,0-.42l-.44.13a6.17,6.17,0,0,1-.16-1.36c.28-.07.49-.12.75-.21l1.17-.28c.49-.13,1.26-.27,1.78-.4a10.58,10.58,0,0,1,.17,1.33l-.5.11-1.55.36v.23c0,.55,0,.69,0,1.24v.2l.61-.14c.41-.09.49-.09.94-.17a7.83,7.83,0,0,1,.09,1.38l-.65.09c-.51.11-.61.1-1,.21a5,5,0,0,0,0,.55c0,.11,0,.23,0,.4.44-.12.83-.18,1.23-.28s.41-.12.86-.22c0,.31.05.79.05,1.29A3.23,3.23,0,0,0,196.7,49.8Z" fill="#231f20"/>
        <path d="M200.11,49.43c0-.08-.13-.3-.3-.76a10.23,10.23,0,0,0-.55-1.13c-.08-.13-.19-.28-.25-.4,0,.32,0,.63,0,.93,0,.53,0,1,.08,1.57q0,.21,0,.54a10.14,10.14,0,0,1-1.26.09c0-.48,0-1,0-1.46,0-.65,0-1.13,0-1.79s0-1.16,0-1.73c0-.29,0-1.06,0-1.44.39-.09.78-.19,1.22-.28a9.23,9.23,0,0,0,1.11,2.83c0-.83-.06-1.67-.12-2.52,0-.2,0-.49,0-.67A7.65,7.65,0,0,1,201.2,43c0,1.16,0,2.47,0,3.79a23.27,23.27,0,0,0,.27,2.94,8,8,0,0,1-1.17.32C200.27,49.93,200.14,49.54,200.11,49.43Z" fill="#231f20"/>
        <path d="M206,48.52a1.66,1.66,0,0,1-.94,1.51,3,3,0,0,1-.94.23,2.87,2.87,0,0,1-1.19-.13,1.81,1.81,0,0,1-.69-.5,1.18,1.18,0,0,1-.23-.28,1.71,1.71,0,0,1-.17-.76,1.28,1.28,0,0,1,.08-.5,8.29,8.29,0,0,1,1.27,0,.75.75,0,0,0,.09.62.84.84,0,0,0,.63.26,1,1,0,0,0,.72-.26c.2-.22-.49-.57-.87-.81a11.31,11.31,0,0,1-1.27-.86,1.87,1.87,0,0,1-.53-1.42,1.79,1.79,0,0,1,.09-.63,2.81,2.81,0,0,1,2.38-2,1.08,1.08,0,0,1,1,.53,2.59,2.59,0,0,1,.2,1.14,10.53,10.53,0,0,1-.07,1.35l-.54,0c-.31,0-.53,0-.68,0s0-1,0-1.08a2.2,2.2,0,0,0-.05-.5,1.5,1.5,0,0,0-1,.74,1.62,1.62,0,0,0-.06.4c0,.54.51.7,1.06,1.1s.82.47,1.21.82A1.36,1.36,0,0,1,206,48.52Z" fill="#231f20"/>
        <path d="M210.73,46.33a6.68,6.68,0,0,1-.14,1.61,3,3,0,0,1-.36.89,2.44,2.44,0,0,1-.67.79,1.27,1.27,0,0,1-.87.32,1.25,1.25,0,0,1-.38,0,2.56,2.56,0,0,1-1.87-2.52A5.78,5.78,0,0,1,207,44.7a2.38,2.38,0,0,1,1.53-1.35,1.59,1.59,0,0,1,1.37.58,3.33,3.33,0,0,1,.58,1A5.11,5.11,0,0,1,210.73,46.33Zm-1.32-.07a1.75,1.75,0,0,0-.06-.49c-.07-.32-.4-1.19-.88-.9a2.11,2.11,0,0,0-.62,1.22,4.22,4.22,0,0,0-.08.94,2.51,2.51,0,0,0,.12.83c.1.27.46.88.82.73s.52-.75.61-1.08A6.52,6.52,0,0,0,209.41,46.26Z" fill="#231f20"/>
        <path d="M215.48,49.48a6.07,6.07,0,0,1-1,.89,2.2,2.2,0,0,1-.29-.31,2.67,2.67,0,0,1-.4-.59c-.07-.13-.18-.36-.32-.66l-.38-.87a2.3,2.3,0,0,0-.25.12c0,.28,0,.71,0,1s0,.54.06.84a4.36,4.36,0,0,1-1.34.21,2.3,2.3,0,0,1,0-.37c0-.23,0-.43,0-.64s0-.53,0-.79c0-.44,0-.86,0-1.3,0-.27,0-1.08,0-1.41s0-.93,0-1.3c-.14,0-.31,0-.47,0,0-.16,0-.39,0-.56a3.77,3.77,0,0,1,.08-.72,5.79,5.79,0,0,1,.61,0l.7.08a3.66,3.66,0,0,1,2.34,1.21,4.09,4.09,0,0,1,.4.53,1.38,1.38,0,0,1,.17.48,1.48,1.48,0,0,1-.49,1.47,3.39,3.39,0,0,1-.67.51,10.43,10.43,0,0,0,.57,1.33,4.86,4.86,0,0,0,.35.53C215.27,49.27,215.38,49.38,215.48,49.48Zm-2.37-4.89a1.57,1.57,0,0,0-.26-.1c0,.23,0,.47,0,.72s0,1,0,1.43a3.48,3.48,0,0,0,.68-.32c.49-.32.64-.56.64-.76a.77.77,0,0,0-.26-.49A2,2,0,0,0,213.11,44.59Z" fill="#231f20"/>
        <path d="M222,45.67a2,2,0,0,1,.06.75,4.36,4.36,0,0,1-.75,1.68,5.25,5.25,0,0,1-1.44,1.42c-.24.17-.5.28-.78.44a4.61,4.61,0,0,1-.52.23l-.33.1c0-.13,0-.29-.05-.39a3.91,3.91,0,0,1,0-.49l0-.91c0-.61,0-1.57,0-2.34,0-.22,0-.42,0-.59,0-.46,0-.76-.07-1.24-.16,0-.33,0-.5-.06,0-.42.07-1.13.1-1.37A3.82,3.82,0,0,1,219,43c.19.06.39.11.59.19l.27.12a3.19,3.19,0,0,1,.7.42l.39.32a4,4,0,0,1,.86,1C221.89,45.29,222,45.46,222,45.67Zm-1.28.15a2.24,2.24,0,0,0-.42-.63,2,2,0,0,0-.92-.64,8.21,8.21,0,0,0,0,.91c0,.13,0,.26,0,.4a5.94,5.94,0,0,1,0,.74c0,.52,0,1.07,0,1.64a3.44,3.44,0,0,0,1.38-1.69A.94.94,0,0,0,220.75,45.82Z" fill="#231f20"/>
        <path d="M225.33,48.59l-1.4.24c-.1.51-.24,1.13-.27,1.25a4.66,4.66,0,0,1-1.34-.35c.13-.34.6-2.13.68-2.48a24.47,24.47,0,0,0,.69-4.12c.19,0,.73-.16.92-.18s.54-.11.79-.12c.09.39.11.79.2,1.18.19.75.34,1.5.49,2.24.09.42.21.81.32,1.21s.35,1.49.47,1.93a9.61,9.61,0,0,1-1.33.37C225.49,49.43,225.41,49,225.33,48.59Zm-1.12-1.13.87-.12c-.09-.51-.38-1.72-.45-2.21C224.55,45.73,224.28,46.9,224.21,47.46Z" fill="#231f20"/>
        <path d="M229.56,44.27c0,.78,0,1.53,0,2.28,0,.55,0,1.09,0,1.55,0,.3,0,.61,0,.91s0,.3,0,.47v.24a6.73,6.73,0,0,1-1.32.11c0-.23,0-.49,0-.71s0-.34,0-.54,0-.49,0-.75,0-.76,0-1.18,0-1,0-1.41c0-.25,0-.49,0-.7-.39.12-.77.2-1.17.31-.06-.35-.11-1-.15-1.26.3-.11.61-.21.91-.3s.53-.14.79-.18c.46-.09.92-.17,1.37-.28a4.26,4.26,0,0,1,.74-.1c0,.26.09.84.11,1.29-.15,0-.32.07-.48.11Z" fill="#231f20"/>
        <path d="M234.11,48.47l-1.4.25c-.1.5-.23,1.13-.27,1.25a4.3,4.3,0,0,1-1.33-.36c.13-.33.59-2.13.67-2.47a24.78,24.78,0,0,0,.69-4.13l.92-.18c.22,0,.54-.1.79-.12.09.4.11.79.2,1.19.19.74.34,1.49.5,2.24.09.41.2.81.31,1.2s.36,1.5.47,1.94a8.91,8.91,0,0,1-1.33.36C234.27,49.31,234.19,48.89,234.11,48.47ZM233,47.35l.86-.12c-.09-.52-.37-1.72-.45-2.21C233.33,45.62,233.06,46.78,233,47.35Z" fill="#231f20"/>
      </g>
    </g>
  </g>
  <g id="Isolation_Mode" data-name="Isolation Mode">
    <path d="M67.4,54.58a6.44,6.44,0,1,0-5.55-7.22,6.43,6.43,0,0,0,5.55,7.22" fill="#d43b55"/>
  </g>
</svg>
