<svg xmlns="http://www.w3.org/2000/svg" viewBox="0 0 291.7 72.56">
  <g id="Isolation_Mode" data-name="Isolation Mode">
    <g>
      <g id="flat">
        <path d="M288,31.15a2.42,2.42,0,0,1-2.42-2.42V19.06a2.42,2.42,0,1,1,4.84,0v9.67A2.42,2.42,0,0,1,288,31.15Z" transform="translate(-15.62 -4.55)" fill="#b11e48"/>
        <rect x="253.01" y="24.19" width="38.7" height="38.7" rx="7.26" fill="#4da6ea"/>
        <circle cx="272.35" cy="7.26" r="7.26" fill="#fcf05a"/>
        <path d="M278.3,67.43h19.34V77.1H278.3Z" transform="translate(-15.62 -4.55)" fill="#f9bb4b"/>
        <path d="M292.81,38.41A9.56,9.56,0,0,0,288,39.75a9.56,9.56,0,0,0-4.84-1.34,9.68,9.68,0,0,0,0,19.35A9.57,9.57,0,0,0,288,56.41a9.57,9.57,0,0,0,4.84,1.35,9.68,9.68,0,0,0,0-19.35Z" transform="translate(-15.62 -4.55)" fill="#fcf05a"/>
        <path d="M280.71,45.66h4.84V50.5h-4.84Z" transform="translate(-15.62 -4.55)" fill="#195c85"/>
        <path d="M290.39,45.66h4.84V50.5h-4.84Z" transform="translate(-15.62 -4.55)" fill="#195c85"/>
        <g>
          <path d="M19.78,50.69a1.68,1.68,0,0,1-.94,1.51,3.07,3.07,0,0,1-.95.23,2.87,2.87,0,0,1-1.19-.13,1.81,1.81,0,0,1-.69-.5,1.49,1.49,0,0,1-.23-.28,1.71,1.71,0,0,1-.16-.76,1.29,1.29,0,0,1,.07-.5,8.25,8.25,0,0,1,1.27,0c0,.3,0,.47.1.62a.82.82,0,0,0,.62.26,1,1,0,0,0,.72-.26c.2-.22-.49-.57-.86-.81a11.31,11.31,0,0,1-1.27-.86,1.88,1.88,0,0,1-.54-1.42,2.06,2.06,0,0,1,.09-.63,2.81,2.81,0,0,1,2.39-1.95,1.09,1.09,0,0,1,1,.54,2.39,2.39,0,0,1,.19,1.13,10.53,10.53,0,0,1-.07,1.35l-.54,0c-.31,0-.52,0-.68,0,0-.12.05-1,.05-1.08a2.13,2.13,0,0,0-.06-.5,1.48,1.48,0,0,0-1,.74,1.3,1.3,0,0,0-.07.4c0,.54.52.7,1.06,1.1s.82.47,1.21.82A1.37,1.37,0,0,1,19.78,50.69Z" transform="translate(-15.62 -4.55)" fill="#231f20"/>
          <path d="M24.32,51.11a4,4,0,0,1-.54.72,1.42,1.42,0,0,1-1.24.58,2.75,2.75,0,0,1-1.68-.79,2.94,2.94,0,0,1-.72-2,6.25,6.25,0,0,1,1.67-4.09,1.92,1.92,0,0,1,1-.34,1.42,1.42,0,0,1,.77.32,1.94,1.94,0,0,1,.54,1.27,6,6,0,0,1,.06.89,2.85,2.85,0,0,1-.05.75,7,7,0,0,1-1.17.07c0-.16,0-.88,0-1s-.06-.67-.21-.8a.83.83,0,0,0-.49.26,6.15,6.15,0,0,0-.79,2.69,1.82,1.82,0,0,0,.55,1.3.92.92,0,0,0,.69.19,1,1,0,0,0,.41-.32c.06-.07.19-.27.28-.4A6.41,6.41,0,0,1,24.32,51.11Z" transform="translate(-15.62 -4.55)" fill="#231f20"/>
          <path d="M28.24,51.69c-.44.09-1,.18-1.28.21,0-.68,0-1.31,0-1.93-.25,0-.57.09-.89.17,0,.56,0,1.38.05,1.94a13.19,13.19,0,0,1-1.34.27c0-.22,0-.45,0-.65,0-.76.07-1.51.06-2.28l0-1.94c0-.4,0-1.42,0-1.8A8.21,8.21,0,0,1,26,45.45c0,.11,0,.89,0,1V47c0,.76,0,1.36.05,2,.26-.06.61-.17.9-.22v-.21c0-.46,0-.83,0-1.21,0-.21,0-.41,0-.64s0-.49,0-.8,0-.47,0-.57a7.58,7.58,0,0,1,1.24-.24c0,.16,0,.89,0,1s0,.41,0,.6c0,.47,0,.94,0,1.42,0,.21,0,.43,0,.65,0,.39,0,.76,0,1.15,0,.21,0,.44,0,.66s0,.44,0,.79C28.23,51.41,28.24,51.64,28.24,51.69Z" transform="translate(-15.62 -4.55)" fill="#231f20"/>
          <path d="M30.27,51.78A10.84,10.84,0,0,1,29,52c0-.19,0-.42,0-.6,0-.72,0-1.44,0-2.16,0-.91,0-.92,0-1.83,0-.37,0-1.56,0-1.92.27-.06.72-.15,1.18-.22,0,.42,0,.62,0,.92,0,.79.05,1.55.06,2.35,0,.14,0,.28,0,.41C30.2,49.93,30.26,50.86,30.27,51.78Z" transform="translate(-15.62 -4.55)" fill="#231f20"/>
          <path d="M34.13,51.66c-.78.23-1.52.33-2.25.5l-.61.15a5.25,5.25,0,0,1,0-.56c0-.15,0-.29,0-.43,0-.66,0-1.38.06-2,0-.21,0-.56,0-1s0-.54,0-.82,0-.15,0-.42l-.44.13a6.18,6.18,0,0,1-.17-1.36c.29-.07.49-.12.76-.21l1.17-.28c.49-.13,1.25-.27,1.78-.39a10.5,10.5,0,0,1,.16,1.32l-.49.11c-.58.14-.91.2-1.55.37V47c0,.55,0,.69,0,1.24v.2l.61-.14c.41-.09.49-.09.93-.17a7.83,7.83,0,0,1,.09,1.38l-.64.09c-.52.11-.61.1-1,.21,0,.24,0,.38,0,.55s0,.23,0,.4c.44-.12.83-.18,1.23-.28s.41-.12.86-.22c0,.31,0,.79,0,1.28A4.37,4.37,0,0,0,34.13,51.66Z" transform="translate(-15.62 -4.55)" fill="#231f20"/>
          <path d="M38.55,51.58a2.76,2.76,0,0,1-1.75.65,2.7,2.7,0,0,1-.63-.07,4.38,4.38,0,0,1-1-.24c0-.15.06-.42.08-.58a16.08,16.08,0,0,0,.12-2.42c0-.37,0-.83,0-1.28a8.54,8.54,0,0,0,0-.92c0-.18,0-.09,0-.27-.13,0-.27,0-.42,0,0-.42,0-1.12,0-1.33l.47,0c.2,0,.37,0,.55,0l.53,0a5.45,5.45,0,0,1,1.52.44A1.7,1.7,0,0,1,39.13,47a1.53,1.53,0,0,1-.08.55A4.76,4.76,0,0,1,38.14,49l.4.18a1.27,1.27,0,0,1,.83,1.06C39.42,50.75,38.93,51.26,38.55,51.58Zm-.62-1.32a.82.82,0,0,0-.36-.18,4.09,4.09,0,0,0-.61,0h-.39s-.06.81-.07.87a1,1,0,0,0,.71,0,2.15,2.15,0,0,0,.69-.31C38,50.54,38.05,50.34,37.93,50.26Zm-1.32-1.92a2.23,2.23,0,0,0,0,.36,1.55,1.55,0,0,0,.57-.35,2.83,2.83,0,0,0,.46-.63,1.51,1.51,0,0,0,.16-.63.58.58,0,0,0-.27-.33,2.53,2.53,0,0,0-.94-.26,4.69,4.69,0,0,0,0,.53c0,.17,0,.4,0,.62Z" transform="translate(-15.62 -4.55)" fill="#231f20"/>
          <path d="M42.78,51.55c-.77.22-1.52.33-2.25.5l-.61.15c0-.19,0-.37,0-.57s0-.28,0-.43c0-.66,0-1.38.06-2,0-.2,0-.55,0-1,0-.25,0-.54,0-.81s0-.16,0-.42l-.44.12a6,6,0,0,1-.16-1.35l.75-.21,1.17-.28c.49-.13,1.26-.27,1.78-.4a11,11,0,0,1,.16,1.33l-.49.1-1.55.37v.23c0,.55,0,.68,0,1.23v.21l.61-.14c.41-.09.49-.09.94-.17a7.76,7.76,0,0,1,.09,1.38c-.23,0-.49,0-.65.09a10,10,0,0,0-1,.21c0,.24,0,.38,0,.55s0,.23,0,.39c.44-.11.83-.17,1.23-.28l.86-.21c0,.31,0,.79,0,1.28A4.37,4.37,0,0,0,42.78,51.55Z" transform="translate(-15.62 -4.55)" fill="#231f20"/>
          <path d="M67.57,50.9c0-.08-.13-.3-.3-.76A9,9,0,0,0,66.71,49c-.07-.13-.18-.27-.24-.39,0,.31,0,.63,0,.93,0,.52,0,1,.09,1.57,0,.14,0,.32,0,.53a7.33,7.33,0,0,1-1.26.09c0-.48,0-1,0-1.45,0-.66,0-1.14-.06-1.8s0-1.15,0-1.72c0-.29,0-1.06,0-1.44.39-.09.78-.19,1.22-.28a9.43,9.43,0,0,0,1.11,2.83c0-.83-.06-1.67-.12-2.52,0-.21,0-.49,0-.67a7.65,7.65,0,0,1,1.27-.21c0,1.16,0,2.47,0,3.79a23.11,23.11,0,0,0,.27,2.93,7.09,7.09,0,0,1-1.17.33C67.73,51.4,67.6,51,67.57,50.9Z" transform="translate(-15.62 -4.55)" fill="#231f20"/>
          <path d="M72.2,50.32l-1.4.25c-.1.51-.23,1.13-.27,1.25a4.66,4.66,0,0,1-1.34-.35c.13-.34.6-2.13.68-2.48a24.6,24.6,0,0,0,.69-4.13l.92-.18c.22,0,.54-.1.79-.11.09.39.11.78.2,1.18.19.74.34,1.49.49,2.24.09.42.21.81.32,1.2s.36,1.5.47,1.94a11.31,11.31,0,0,1-1.33.37C72.36,51.16,72.28,50.74,72.2,50.32ZM71.08,49.2l.87-.12c-.09-.52-.37-1.72-.45-2.21C71.42,47.47,71.15,48.63,71.08,49.2Z" transform="translate(-15.62 -4.55)" fill="#231f20"/>
          <path d="M78,50.4a3.64,3.64,0,0,1-.54.73,1.39,1.39,0,0,1-1.24.58,2.8,2.8,0,0,1-1.68-.79,3,3,0,0,1-.72-2,6.3,6.3,0,0,1,1.67-4.09,2.07,2.07,0,0,1,1-.35,1.48,1.48,0,0,1,.77.33,2,2,0,0,1,.55,1.26,8.12,8.12,0,0,1,0,.9,2.88,2.88,0,0,1,0,.75,6.93,6.93,0,0,1-1.17.07c0-.17,0-.89,0-1.05s-.06-.68-.2-.81a.88.88,0,0,0-.49.26,6.07,6.07,0,0,0-.8,2.7,1.88,1.88,0,0,0,.55,1.3.88.88,0,0,0,.7.18.93.93,0,0,0,.4-.31l.28-.4A5.8,5.8,0,0,1,78,50.4Z" transform="translate(-15.62 -4.55)" fill="#231f20"/>
          <path d="M81.87,51c-.44.09-1,.18-1.28.21,0-.69,0-1.31,0-1.93-.25,0-.56.09-.89.16,0,.57,0,1.38,0,2a13.19,13.19,0,0,1-1.34.27c0-.22,0-.45,0-.65,0-.76.06-1.51,0-2.28l0-1.95c0-.39,0-1.41,0-1.79a8.39,8.39,0,0,1,1.19-.23v1.54c0,.76,0,1.36,0,2,.27-.07.61-.17.9-.22v-.22c0-.45,0-.82,0-1.21,0-.2,0-.4,0-.63s0-.49,0-.81,0-.46,0-.56a7.44,7.44,0,0,1,1.23-.24c0,.15,0,.88,0,1s0,.41,0,.6c0,.47,0,.94,0,1.42,0,.21,0,.43,0,.64,0,.4,0,.77,0,1.15,0,.22,0,.45,0,.66s0,.45,0,.79Z" transform="translate(-15.62 -4.55)" fill="#231f20"/>
          <path d="M88.59,50.88a6.14,6.14,0,0,1-1,.89,2.93,2.93,0,0,1-.29-.31,2.69,2.69,0,0,1-.39-.6,5.61,5.61,0,0,1-.32-.65c0-.1-.39-.87-.39-.87a2.41,2.41,0,0,0-.25.11c0,.29,0,.72,0,1s0,.54.06.84a4.08,4.08,0,0,1-1.34.21c0-.12,0-.25,0-.37s0-.43,0-.64,0-.52,0-.79c0-.44,0-.86,0-1.29s0-1.08,0-1.42,0-.92,0-1.3c-.15,0-.32,0-.47,0a5.42,5.42,0,0,1,0-.57,3.08,3.08,0,0,1,.09-.72l.6,0c.25,0,.48.05.71.09A3.63,3.63,0,0,1,88,45.69a4.09,4.09,0,0,1,.4.53,1.2,1.2,0,0,1,.17.48A1.48,1.48,0,0,1,88,48.17a3.43,3.43,0,0,1-.67.52A11,11,0,0,0,87.93,50a3.29,3.29,0,0,0,.36.53C88.38,50.66,88.49,50.77,88.59,50.88ZM86.22,46a1.57,1.57,0,0,0-.26-.1c0,.23,0,.47,0,.72s0,1,0,1.43a3,3,0,0,0,.68-.32c.49-.32.64-.56.64-.76a.79.79,0,0,0-.26-.49A2.09,2.09,0,0,0,86.22,46Z" transform="translate(-15.62 -4.55)" fill="#231f20"/>
          <path d="M92,50.9c-.77.23-1.51.33-2.24.5l-.61.15a3.51,3.51,0,0,1,0-.56,3.09,3.09,0,0,1,0-.43c0-.66,0-1.38.06-2,0-.21,0-.55,0-1,0-.25,0-.54,0-.82a2.84,2.84,0,0,1,0-.42l-.44.13a6.73,6.73,0,0,1-.16-1.35c.29-.08.49-.13.75-.22l1.17-.28c.49-.12,1.26-.27,1.79-.39a10.71,10.71,0,0,1,.16,1.33,3.54,3.54,0,0,0-.49.1c-.59.14-.91.2-1.56.37v.22c0,.56,0,.69,0,1.24a1.41,1.41,0,0,0,0,.2l.61-.14c.4-.09.49-.09.93-.16a7.64,7.64,0,0,1,.09,1.37c-.23,0-.49.06-.65.1-.51.1-.61.09-1,.2,0,.24,0,.39,0,.55s0,.23,0,.4l1.24-.28.86-.22c0,.32,0,.8,0,1.29A4.94,4.94,0,0,0,92,50.9Z" transform="translate(-15.62 -4.55)" fill="#231f20"/>
          <path d="M96.94,50.16a3.23,3.23,0,0,1-.54.72,1.39,1.39,0,0,1-1.24.58,2.75,2.75,0,0,1-1.67-.79,3,3,0,0,1-.73-2,6.26,6.26,0,0,1,1.68-4.09,1.92,1.92,0,0,1,1-.34,1.39,1.39,0,0,1,.77.32,1.9,1.9,0,0,1,.55,1.26,8.15,8.15,0,0,1,.06.9,4.08,4.08,0,0,1,0,.75,7,7,0,0,1-1.18.07c0-.17,0-.88,0-1.05s-.06-.67-.2-.8a.88.88,0,0,0-.49.25,6.06,6.06,0,0,0-.79,2.7,1.81,1.81,0,0,0,.54,1.3.89.89,0,0,0,.7.18c.19-.06.26-.17.41-.31s.18-.27.28-.4A5.93,5.93,0,0,1,96.94,50.16Z" transform="translate(-15.62 -4.55)" fill="#231f20"/>
          <path d="M100.87,50.74c-.45.09-1,.18-1.28.21,0-.68,0-1.31,0-1.93-.25,0-.56.09-.88.16,0,.57,0,1.38,0,2-.46.12-1.06.23-1.34.27,0-.22,0-.45,0-.65,0-.76.07-1.51.06-2.28l0-1.94c0-.4,0-1.42,0-1.8a7.94,7.94,0,0,1,1.18-.23v1c0,.21,0,.38,0,.52,0,.76,0,1.36,0,2,.26-.07.61-.17.9-.22V46.35c0-.2,0-.4,0-.63s0-.49,0-.8a5.24,5.24,0,0,1,0-.57,7.66,7.66,0,0,1,1.23-.24c0,.16,0,.89,0,1s0,.41,0,.6c0,.47,0,.94,0,1.42,0,.21,0,.43,0,.64,0,.4,0,.77,0,1.16,0,.21,0,.44,0,.65s0,.45,0,.8C100.86,50.46,100.87,50.69,100.87,50.74Z" transform="translate(-15.62 -4.55)" fill="#231f20"/>
          <path d="M103.86,45.65c0,.78,0,1.52,0,2.28,0,.55,0,1.09,0,1.55,0,.3,0,.61,0,.91s0,.3,0,.47v.24a7.6,7.6,0,0,1-1.32.11c0-.23,0-.49,0-.71V50c0-.24,0-.49,0-.75s0-.76,0-1.18,0-1,0-1.41c0-.26,0-.5,0-.7l-1.17.3c-.06-.34-.11-.95-.15-1.25a8.06,8.06,0,0,1,.91-.3c.28-.07.53-.14.79-.18.46-.09.92-.17,1.36-.28a3.57,3.57,0,0,1,.75-.1c0,.25.09.84.11,1.28l-.48.12Z" transform="translate(-15.62 -4.55)" fill="#231f20"/>
          <path d="M109.15,49.52a1.66,1.66,0,0,1-.94,1.51,3,3,0,0,1-.94.23,3.05,3.05,0,0,1-1.19-.13,1.92,1.92,0,0,1-.69-.5,1.18,1.18,0,0,1-.23-.28,1.85,1.85,0,0,1-.17-.76,1.28,1.28,0,0,1,.08-.5,8.29,8.29,0,0,1,1.27,0,.75.75,0,0,0,.09.62.84.84,0,0,0,.63.26,1,1,0,0,0,.72-.26c.2-.22-.49-.57-.86-.81a11.31,11.31,0,0,1-1.27-.86,1.88,1.88,0,0,1-.54-1.42,2.06,2.06,0,0,1,.09-.63,2.81,2.81,0,0,1,2.38-2,1.08,1.08,0,0,1,1,.53,2.59,2.59,0,0,1,.2,1.14,10.53,10.53,0,0,1-.07,1.35l-.54,0c-.31,0-.53,0-.68,0,0-.12,0-1,0-1.08a1.75,1.75,0,0,0,0-.5,1.48,1.48,0,0,0-1,.74,1.3,1.3,0,0,0-.07.4c0,.54.51.7,1.06,1.1s.82.47,1.21.82A1.31,1.31,0,0,1,109.15,49.52Z" transform="translate(-15.62 -4.55)" fill="#231f20"/>
          <path d="M111.48,49.46a7.3,7.3,0,0,1-.82,2.39,6.19,6.19,0,0,1-1.11-.46,10.54,10.54,0,0,0,.66-2.25A8.65,8.65,0,0,1,111.48,49.46Z" transform="translate(-15.62 -4.55)" fill="#231f20"/>
          <path d="M117.1,51.14a2.34,2.34,0,0,1-.33-.9,2.82,2.82,0,0,1-1.5.75,1.07,1.07,0,0,1-.91-.26c-.37-.41-.33-1.37-.34-2a3.63,3.63,0,0,1,0-.57c0-.31,0-.63,0-.95s.1-2.26.14-2.49a2,2,0,0,1,.08-.45,10.42,10.42,0,0,1,1.32.13c0,.11,0,.23-.05.35a26.69,26.69,0,0,0-.25,4.46c0,.09,0,.38.16.38a.37.37,0,0,0,.2-.08,1.72,1.72,0,0,0,.23-.2c.3-.25.4-.41.65-.6a7.56,7.56,0,0,1,0-1c0-.06,0-.27,0-.55v-.52c0-1,0-1.75,0-2.48a8.15,8.15,0,0,1,1.33-.25c0,3.38,0,3.46,0,3.58v.67a7.66,7.66,0,0,0,.44,2.35A3,3,0,0,1,117.1,51.14Z" transform="translate(-15.62 -4.55)" fill="#231f20"/>
          <path d="M124,50.43c-.36.09-1.08.32-1.35.38-.08-.41-.12-.77-.16-1.12s-.11-1-.2-1.5c0-.13-.06-.69-.08-1a28.2,28.2,0,0,0-.37,3c-.39.09-.89.18-1.1.22,0-.13-.09-.34-.16-.7s-.18-.9-.3-1.37c-.08-.22-.19-.59-.27-.84,0,.21-.08,1.22-.08,1.44s0,.67,0,.94a7.34,7.34,0,0,1-.09,1.18l-1.25-.1c.09-.63.09-1.22.14-1.83a25.81,25.81,0,0,0,.1-2.85c0-.44,0-.88,0-1.25V44.5a15.39,15.39,0,0,1,1.59-.35,18.2,18.2,0,0,0,.5,1.84s.14.37.2.49l.21-.71c.13-.55.21-1.06.29-1.63.18,0,.87-.15,1-.17a4.28,4.28,0,0,1,.65-.08c0,.64,0,1.25.14,2,.06.49.12,1.59.24,2.47.05.4.17,1.09.22,1.39S123.92,50.33,124,50.43Z" transform="translate(-15.62 -4.55)" fill="#231f20"/>
          <path d="M131.59,50.33c-.36.08-1.07.32-1.35.39-.07-.42-.11-.78-.16-1.13s-.1-1-.19-1.5c0-.13-.06-.69-.09-1a28.2,28.2,0,0,0-.37,3c-.38.09-.88.18-1.1.22,0-.13-.09-.34-.15-.7s-.18-.9-.31-1.37c-.07-.22-.19-.59-.26-.85,0,.22-.08,1.23-.09,1.45s0,.67,0,.94a7.31,7.31,0,0,1-.1,1.18l-1.25-.1c.09-.63.1-1.22.15-1.83.06-.81.11-1.64.09-2.85,0-.44,0-.88,0-1.25,0-.18,0-.35,0-.49.36-.13,1.21-.27,1.59-.35.17.66.29,1.25.5,1.84,0,0,.14.37.2.49.12-.38.19-.61.21-.71a14.61,14.61,0,0,0,.29-1.63c.18,0,.87-.15,1.05-.17a4.28,4.28,0,0,1,.65-.08c0,.64,0,1.26.15,2,.05.49.11,1.59.23,2.48.06.39.17,1.09.22,1.38S131.57,50.23,131.59,50.33Z" transform="translate(-15.62 -4.55)" fill="#231f20"/>
          <path d="M135,50.34c-.78.23-1.52.33-2.25.5l-.61.15a3.51,3.51,0,0,1,0-.56c0-.15,0-.29,0-.43,0-.66,0-1.38.05-2,0-.21,0-.56,0-1s0-.54,0-.82,0-.16,0-.42l-.45.13a6.83,6.83,0,0,1-.16-1.36,7.39,7.39,0,0,0,.75-.21l1.18-.28c.49-.13,1.25-.27,1.78-.4A11,11,0,0,1,135.4,45l-.49.11-1.56.36v.23c0,.55,0,.69,0,1.24v.2L134,47c.4-.09.49-.09.93-.17a7.83,7.83,0,0,1,.09,1.38l-.64.09c-.52.11-.61.1-1,.21V49a3.11,3.11,0,0,0,0,.4c.44-.12.82-.18,1.23-.28s.4-.12.86-.22c0,.31.05.79,0,1.28A3.87,3.87,0,0,0,135,50.34Z" transform="translate(-15.62 -4.55)" fill="#231f20"/>
          <path d="M139.48,50.23a12.42,12.42,0,0,1-1.28.21c0-.68,0-1.3,0-1.93-.25,0-.56.09-.88.17,0,.56,0,1.38.05,1.94a11.29,11.29,0,0,1-1.34.27c0-.21,0-.44,0-.65,0-.75.07-1.51.06-2.28l0-1.94c0-.39,0-1.41,0-1.8a11.8,11.8,0,0,1,1.18-.23v1c0,.22,0,.38,0,.53,0,.75,0,1.35.05,2,.26-.06.61-.16.9-.21v-.22c0-.46,0-.83,0-1.21,0-.2,0-.41,0-.64s0-.49,0-.8a5,5,0,0,1,0-.56,6.63,6.63,0,0,1,1.23-.25c0,.16,0,.89,0,1v.6c0,.46,0,.93,0,1.41,0,.22,0,.43,0,.65,0,.39,0,.77,0,1.15,0,.22,0,.44,0,.66s0,.44,0,.79C139.47,50,139.48,50.19,139.48,50.23Z" transform="translate(-15.62 -4.55)" fill="#231f20"/>
          <path d="M144.25,50.15a6.14,6.14,0,0,1-1,.89c-.09-.09-.19-.19-.29-.31a2.87,2.87,0,0,1-.39-.59c-.07-.14-.19-.36-.32-.66,0-.1-.38-.87-.38-.87a1.72,1.72,0,0,0-.25.11c0,.29,0,.72,0,1s.05.54.06.84a4.08,4.08,0,0,1-1.34.21c0-.12,0-.25,0-.37s0-.43,0-.63,0-.53,0-.8c0-.44,0-.86,0-1.29s0-1.08,0-1.42,0-.92,0-1.29c-.15,0-.32,0-.47,0,0-.17,0-.4,0-.57a3.15,3.15,0,0,1,.09-.72l.6,0c.25,0,.48.06.71.09A3.66,3.66,0,0,1,144,45.5a1.28,1.28,0,0,1,.18.47,1.51,1.51,0,0,1-.5,1.47A3.43,3.43,0,0,1,143,48a12.81,12.81,0,0,0,.57,1.32,5.07,5.07,0,0,0,.36.54Zm-2.36-4.9a1.07,1.07,0,0,0-.27-.09c0,.22,0,.46,0,.72s0,1,0,1.42a3.44,3.44,0,0,0,.68-.32c.48-.32.64-.56.63-.76a.83.83,0,0,0-.25-.49A2.18,2.18,0,0,0,141.89,45.25Z" transform="translate(-15.62 -4.55)" fill="#231f20"/>
          <path d="M150.73,49a1.64,1.64,0,0,1-.94,1.51,2.7,2.7,0,0,1-.95.23,2.81,2.81,0,0,1-1.18-.13,1.91,1.91,0,0,1-.69-.49,1.27,1.27,0,0,1-.24-.29,1.77,1.77,0,0,1-.16-.75,1.28,1.28,0,0,1,.08-.5,7.21,7.21,0,0,1,1.27,0,.71.71,0,0,0,.09.62.79.79,0,0,0,.63.25.94.94,0,0,0,.71-.26c.2-.22-.48-.57-.86-.8a14.84,14.84,0,0,1-1.27-.86,1.86,1.86,0,0,1-.53-1.42,2.22,2.22,0,0,1,.08-.64,2.82,2.82,0,0,1,2.39-1.95,1.1,1.1,0,0,1,1,.54,2.43,2.43,0,0,1,.19,1.14,12.34,12.34,0,0,1-.06,1.34,4.89,4.89,0,0,1-.54,0,6.26,6.26,0,0,1-.69,0c0-.12.05-1,.05-1.08a1.78,1.78,0,0,0-.06-.51,1.5,1.5,0,0,0-1,.75,1.54,1.54,0,0,0-.07.39c0,.54.52.7,1.06,1.11a11.17,11.17,0,0,1,1.21.82A1.3,1.3,0,0,1,150.73,49Z" transform="translate(-15.62 -4.55)" fill="#231f20"/>
          <path d="M154.37,50.09c-.78.22-1.52.33-2.25.49l-.61.16a3.57,3.57,0,0,1,0-.57c0-.14,0-.28,0-.43,0-.66,0-1.38,0-2,0-.2,0-.55,0-1,0-.25,0-.54,0-.81s0-.16,0-.42l-.45.12a6.73,6.73,0,0,1-.16-1.35l.76-.21,1.17-.28c.49-.13,1.25-.27,1.78-.4a10.71,10.71,0,0,1,.16,1.33l-.49.1-1.55.37v.23c0,.55,0,.68,0,1.23v.21l.61-.14c.41-.09.49-.09.93-.17a7.76,7.76,0,0,1,.09,1.38c-.22,0-.49,0-.64.09a10,10,0,0,0-1,.21c0,.24,0,.38,0,.55a2.89,2.89,0,0,0,0,.39l1.23-.28.86-.21c0,.31,0,.79,0,1.28A3.87,3.87,0,0,0,154.37,50.09Z" transform="translate(-15.62 -4.55)" fill="#231f20"/>
          <path d="M157.77,49.72c0-.08-.12-.3-.3-.77a11.17,11.17,0,0,0-.55-1.13c-.07-.13-.18-.27-.25-.39,0,.31,0,.62,0,.92,0,.53,0,1,.08,1.57,0,.15,0,.33,0,.54a7.13,7.13,0,0,1-1.25.09c0-.48,0-1,0-1.45,0-.66,0-1.14-.06-1.8s0-1.15,0-1.72c0-.29,0-1.06,0-1.44.38-.09.78-.19,1.22-.28a9.25,9.25,0,0,0,1.1,2.82c0-.82-.06-1.66-.11-2.51,0-.21,0-.49,0-.67a7.7,7.7,0,0,1,1.26-.21c0,1.16,0,2.47,0,3.79a23.12,23.12,0,0,0,.26,2.93,6.59,6.59,0,0,1-1.17.33C157.94,50.22,157.81,49.83,157.77,49.72Z" transform="translate(-15.62 -4.55)" fill="#231f20"/>
          <path d="M163.69,48.8a1.66,1.66,0,0,1-.94,1.51,2.82,2.82,0,0,1-.95.23,2.87,2.87,0,0,1-1.19-.13,2,2,0,0,1-.69-.49,1.32,1.32,0,0,1-.23-.29,1.63,1.63,0,0,1-.16-.75,1.29,1.29,0,0,1,.07-.5,7.3,7.3,0,0,1,1.28,0A.71.71,0,0,0,161,49a.79.79,0,0,0,.63.25.94.94,0,0,0,.71-.26c.2-.21-.49-.57-.86-.8a14.84,14.84,0,0,1-1.27-.86,1.88,1.88,0,0,1-.54-1.42,2.58,2.58,0,0,1,.09-.64,2.82,2.82,0,0,1,2.39-1.95,1.11,1.11,0,0,1,1,.54,2.43,2.43,0,0,1,.19,1.14,10.29,10.29,0,0,1-.07,1.34,4.89,4.89,0,0,1-.54,0,6.16,6.16,0,0,1-.68,0c0-.12.05-1,.05-1.08a2.3,2.3,0,0,0-.06-.51,1.5,1.5,0,0,0-1,.75,1.19,1.19,0,0,0-.07.39c0,.54.52.7,1.06,1.11a11.17,11.17,0,0,1,1.21.82A1.35,1.35,0,0,1,163.69,48.8Z" transform="translate(-15.62 -4.55)" fill="#231f20"/>
          <path d="M168.4,46.62a6.67,6.67,0,0,1-.15,1.61,2.87,2.87,0,0,1-.36.89,2.51,2.51,0,0,1-.66.79,1.29,1.29,0,0,1-.87.32l-.38,0a2.55,2.55,0,0,1-1.87-2.52,5.78,5.78,0,0,1,.53-2.69,2.38,2.38,0,0,1,1.53-1.35,1.6,1.6,0,0,1,1.37.58,3.42,3.42,0,0,1,.58,1A5,5,0,0,1,168.4,46.62Zm-1.32-.07a1.51,1.51,0,0,0-.07-.49c-.06-.32-.4-1.2-.87-.9a2.05,2.05,0,0,0-.62,1.22,4.12,4.12,0,0,0-.09.93,3,3,0,0,0,.12.83c.1.28.47.88.83.73s.52-.75.61-1.07A7.59,7.59,0,0,0,167.08,46.55Z" transform="translate(-15.62 -4.55)" fill="#231f20"/>
          <path d="M173,49.77a5.7,5.7,0,0,1-1,.89,2.2,2.2,0,0,1-.29-.31,2.87,2.87,0,0,1-.39-.59,6,6,0,0,1-.32-.66c0-.09-.39-.87-.39-.87a2.41,2.41,0,0,0-.25.11c0,.29,0,.72,0,1s0,.54.06.84a4.36,4.36,0,0,1-1.34.21,2.3,2.3,0,0,1,0-.37c0-.23,0-.44,0-.64s0-.53,0-.79c0-.45,0-.87,0-1.3,0-.27,0-1.08,0-1.41s0-.93,0-1.3c-.14,0-.31,0-.46,0a5.23,5.23,0,0,1,0-.56,3.08,3.08,0,0,1,.09-.72,5.74,5.74,0,0,1,.6,0l.71.08a3.64,3.64,0,0,1,2.33,1.21,3.51,3.51,0,0,1,.4.53,1.2,1.2,0,0,1,.17.48,1.48,1.48,0,0,1-.49,1.47,3.82,3.82,0,0,1-.67.51,11.93,11.93,0,0,0,.57,1.32,3.38,3.38,0,0,0,.36.54A3.18,3.18,0,0,0,173,49.77Zm-2.37-4.9a1.58,1.58,0,0,0-.26-.09c0,.23,0,.47,0,.72s0,1,0,1.43a4.69,4.69,0,0,0,.69-.32c.48-.32.64-.56.63-.77a.82.82,0,0,0-.26-.49A2.14,2.14,0,0,0,170.63,44.87Z" transform="translate(-15.62 -4.55)" fill="#231f20"/>
          <path d="M177.45,46a1.85,1.85,0,0,1,.06.76,4.27,4.27,0,0,1-.75,1.68,5.55,5.55,0,0,1-1.44,1.42c-.24.17-.5.28-.78.44-.13.07-.4.17-.52.22s-.23.06-.32.1a3.63,3.63,0,0,1-.06-.38c0-.14,0-.35,0-.49l0-.91c0-.62,0-1.58,0-2.34,0-.22,0-.42,0-.59,0-.47-.05-.77-.07-1.25-.15,0-.33,0-.5,0,0-.42.07-1.13.1-1.37a3.78,3.78,0,0,1,1.24.1c.19.06.4.12.59.2a2.14,2.14,0,0,1,.28.12,3.3,3.3,0,0,1,.7.42l.39.32a4.12,4.12,0,0,1,.85,1C177.31,45.6,177.38,45.78,177.45,46Zm-1.28.15a2,2,0,0,0-.42-.63,2.12,2.12,0,0,0-.92-.63c0,.16,0,.33,0,.91,0,.13,0,.26,0,.39a6,6,0,0,1,0,.75c0,.51,0,1.06,0,1.64a3.49,3.49,0,0,0,1.38-1.7A1,1,0,0,0,176.17,46.13Z" transform="translate(-15.62 -4.55)" fill="#231f20"/>
          <path d="M180.26,48.91l-1.4.25c-.1.5-.23,1.13-.27,1.25a4.6,4.6,0,0,1-1.33-.36c.12-.34.59-2.13.67-2.48a24.47,24.47,0,0,0,.69-4.12l.92-.18c.22,0,.54-.1.79-.12.09.4.11.79.2,1.18.19.75.34,1.5.49,2.24.09.42.21.82.32,1.21s.35,1.49.47,1.94a9.24,9.24,0,0,1-1.33.36C180.42,49.75,180.34,49.33,180.26,48.91Zm-1.12-1.13.87-.12c-.09-.51-.37-1.72-.45-2.21C179.48,46.05,179.21,47.22,179.14,47.78Z" transform="translate(-15.62 -4.55)" fill="#231f20"/>
          <path d="M183.84,44.6c0,.78,0,1.53,0,2.28,0,.55,0,1.09,0,1.55,0,.3,0,.61,0,.91s0,.3,0,.47v.24a6.67,6.67,0,0,1-1.32.11c0-.23,0-.49,0-.71a4.86,4.86,0,0,0,0-.54c0-.24,0-.49,0-.75s0-.76,0-1.18,0-1,0-1.41c0-.25,0-.49,0-.7-.4.12-.78.2-1.18.31-.06-.35-.1-1-.14-1.26.3-.11.61-.21.9-.3s.53-.14.79-.18c.46-.09.92-.17,1.37-.28a3.49,3.49,0,0,1,.74-.09c0,.25.09.83.11,1.28-.15,0-.32.07-.48.11Z" transform="translate(-15.62 -4.55)" fill="#231f20"/>
          <path d="M188.83,49.64c-.78.22-1.52.33-2.25.49l-.61.16a3.69,3.69,0,0,1,0-.57c0-.14,0-.29,0-.43,0-.66,0-1.38.05-2,0-.2,0-.55,0-1,0-.25,0-.54,0-.82s0-.15,0-.41l-.45.12a6.73,6.73,0,0,1-.16-1.35c.29-.08.49-.13.76-.22s.77-.18,1.17-.27,1.25-.27,1.78-.4a10.71,10.71,0,0,1,.16,1.33l-.49.1c-.59.14-.91.2-1.55.37V45c0,.55,0,.68,0,1.23v.21l.61-.14c.41-.09.49-.09.93-.17a7.69,7.69,0,0,1,.09,1.38c-.22,0-.49.05-.64.09-.52.1-.61.09-1,.2,0,.25,0,.39,0,.56a3,3,0,0,0,0,.39l1.23-.28.86-.21c0,.31.05.79,0,1.28A3.87,3.87,0,0,0,188.83,49.64Z" transform="translate(-15.62 -4.55)" fill="#231f20"/>
          <path d="M192.23,49.27c0-.09-.12-.3-.3-.77a10.23,10.23,0,0,0-.55-1.13c-.07-.13-.18-.27-.25-.39,0,.31,0,.62,0,.92,0,.53,0,1,.08,1.57,0,.15,0,.33,0,.54a8.26,8.26,0,0,1-1.25.09c0-.48,0-1,0-1.45,0-.66,0-1.14-.06-1.8s0-1.15,0-1.73c0-.28,0-1,0-1.44l1.22-.27a9.25,9.25,0,0,0,1.1,2.82c0-.82-.06-1.66-.11-2.51,0-.21,0-.49,0-.67a7.7,7.7,0,0,1,1.26-.21c0,1.16,0,2.47,0,3.79a23.12,23.12,0,0,0,.26,2.93,6.59,6.59,0,0,1-1.17.33C192.4,49.77,192.27,49.38,192.23,49.27Z" transform="translate(-15.62 -4.55)" fill="#231f20"/>
          <path d="M200.16,45.68a1.69,1.69,0,0,1,.06.76,4.25,4.25,0,0,1-.74,1.68A5.59,5.59,0,0,1,198,49.54c-.24.17-.5.28-.77.44a3.32,3.32,0,0,1-.53.22l-.32.11a2.08,2.08,0,0,1,0-.39,2.69,2.69,0,0,1,0-.49c0-.3,0-.61,0-.91,0-.61,0-1.57,0-2.34a5.34,5.34,0,0,0,0-.59c0-.47-.05-.77-.06-1.25a4.63,4.63,0,0,1-.51-.05c0-.42.07-1.13.11-1.37a3.78,3.78,0,0,1,1.23.11,4.49,4.49,0,0,1,.59.19l.28.12a3.46,3.46,0,0,1,.7.42l.39.32a4.12,4.12,0,0,1,.85,1A4.66,4.66,0,0,1,200.16,45.68Zm-1.28.15a2.28,2.28,0,0,0-.41-.63,2.25,2.25,0,0,0-.92-.63,6.12,6.12,0,0,0,0,.91c0,.13,0,.26,0,.4s0,.47,0,.74c0,.51,0,1.07,0,1.64a3.49,3.49,0,0,0,1.38-1.7A1,1,0,0,0,198.88,45.83Z" transform="translate(-15.62 -4.55)" fill="#231f20"/>
          <path d="M203.81,50a2.18,2.18,0,0,1-.32-.89,2.85,2.85,0,0,1-1.51.75,1.09,1.09,0,0,1-.91-.26c-.37-.42-.33-1.38-.34-2a5.25,5.25,0,0,1,0-.56c0-.31,0-.64,0-1s.1-2.27.13-2.5a1.82,1.82,0,0,1,.08-.44,12.14,12.14,0,0,1,1.32.12c0,.11,0,.23,0,.35a25.74,25.74,0,0,0-.26,4.47c0,.08,0,.37.16.38a.42.42,0,0,0,.21-.09,2.53,2.53,0,0,0,.22-.19c.3-.26.4-.42.65-.61a7.53,7.53,0,0,1,0-1c0-.06,0-.28,0-.56v-.51c0-1,0-1.75,0-2.48a6.9,6.9,0,0,1,1.32-.26c0,3.38,0,3.47,0,3.59s0,.44,0,.67a7.65,7.65,0,0,0,.43,2.34A2.88,2.88,0,0,1,203.81,50Z" transform="translate(-15.62 -4.55)" fill="#231f20"/>
          <path d="M209.48,49.29a6.07,6.07,0,0,1-1,.89,2.83,2.83,0,0,1-.3-.3,3.09,3.09,0,0,1-.39-.6c-.07-.13-.18-.36-.32-.66,0-.09-.38-.87-.38-.87a2.3,2.3,0,0,0-.25.12c0,.28,0,.71,0,1s0,.54,0,.84a4.27,4.27,0,0,1-1.34.21c0-.12,0-.25,0-.37s0-.43,0-.64,0-.53,0-.79c0-.44,0-.86,0-1.3,0-.27,0-1.08,0-1.41s0-.93,0-1.3c-.14,0-.31,0-.47,0,0-.16,0-.39,0-.56a3.11,3.11,0,0,1,.08-.72c.21,0,.42,0,.6,0l.71.08a3.62,3.62,0,0,1,2.33,1.21,3.42,3.42,0,0,1,.41.53,1.62,1.62,0,0,1,.17.48,1.47,1.47,0,0,1-.5,1.47,3.32,3.32,0,0,1-.66.51,10.43,10.43,0,0,0,.57,1.33,4.86,4.86,0,0,0,.35.53C209.27,49.08,209.38,49.19,209.48,49.29Zm-2.37-4.9a1.42,1.42,0,0,0-.27-.09q0,.35,0,.72c0,.3,0,1,0,1.43a3.77,3.77,0,0,0,.68-.32c.49-.32.64-.56.64-.76a.77.77,0,0,0-.26-.49A2.21,2.21,0,0,0,207.11,44.39Z" transform="translate(-15.62 -4.55)" fill="#231f20"/>
          <path d="M213.9,48.62a3.68,3.68,0,0,1-.55.73,1.39,1.39,0,0,1-1.24.58,2.75,2.75,0,0,1-1.67-.79,3,3,0,0,1-.73-2A6.26,6.26,0,0,1,211.39,43a2,2,0,0,1,1-.35,1.48,1.48,0,0,1,.77.33,1.88,1.88,0,0,1,.55,1.26,8,8,0,0,1,.06.9,4.15,4.15,0,0,1-.05.75,7,7,0,0,1-1.18.07c0-.17,0-.89,0-1.05s-.05-.67-.2-.8a.88.88,0,0,0-.49.25,6.06,6.06,0,0,0-.79,2.7,1.81,1.81,0,0,0,.54,1.3.89.89,0,0,0,.7.18c.19-.06.26-.17.41-.31s.18-.27.28-.4A6.25,6.25,0,0,1,213.9,48.62Z" transform="translate(-15.62 -4.55)" fill="#231f20"/>
          <path d="M217.82,49.21c-.45.09-1,.18-1.28.21,0-.69,0-1.31,0-1.93-.25,0-.56.09-.88.16,0,.57,0,1.38,0,2-.46.12-1,.23-1.34.27,0-.22,0-.45,0-.65,0-.76.07-1.51.06-2.28l0-1.94c0-.4,0-1.42,0-1.8a7.94,7.94,0,0,1,1.18-.23v1c0,.22,0,.39,0,.53,0,.76,0,1.36.05,2,.26-.07.61-.17.9-.22V44.82c0-.2,0-.4,0-.63s0-.49,0-.8a5.24,5.24,0,0,1,0-.57,7.66,7.66,0,0,1,1.23-.24c0,.15,0,.88,0,1s0,.41,0,.6c0,.47,0,.94,0,1.42,0,.21,0,.43,0,.64,0,.4,0,.77,0,1.15,0,.22,0,.45,0,.66s0,.45,0,.79C217.81,48.93,217.82,49.16,217.82,49.21Z" transform="translate(-15.62 -4.55)" fill="#231f20"/>
          <path d="M222.09,49.3c-.45.09-1.25.14-1.63.19-.54,0-1.05.12-1.59.2a7.12,7.12,0,0,1-.56-1.18c.19-.32.69-1.51.95-2s.39-.88.76-1.58c0-.11.41-.82.45-.92a7.6,7.6,0,0,0-1.86.41,8.54,8.54,0,0,1-.22-1.23,5.61,5.61,0,0,1,1.25-.32l1.57-.22.42,0a6.44,6.44,0,0,1,.44,1.31c-.1.16-.3.42-.36.5-.34.58-.71,1.36-1,1.86s-.7,1.4-.9,2c.22,0,.44-.06.6-.06l.63,0c.15,0,.66-.08.9-.13C222,48.27,222.06,48.78,222.09,49.3Z" transform="translate(-15.62 -4.55)" fill="#231f20"/>
          <path d="M225.55,49.72a2.17,2.17,0,0,1-.32-.9,2.82,2.82,0,0,1-1.5.75,1.1,1.1,0,0,1-.92-.26,3.59,3.59,0,0,1-.34-2,5.44,5.44,0,0,1,0-.57c0-.31,0-.63,0-1s.1-2.26.13-2.49a2.79,2.79,0,0,1,.08-.45,10.25,10.25,0,0,1,1.32.13c0,.11,0,.23,0,.35a26.69,26.69,0,0,0-.25,4.46c0,.09,0,.37.16.38a.37.37,0,0,0,.2-.08,1.13,1.13,0,0,0,.22-.2c.3-.25.41-.41.66-.6a6.14,6.14,0,0,1,0-1c0-.06,0-.27,0-.55v-.51c0-1,0-1.76,0-2.49a8.21,8.21,0,0,1,1.32-.25c0,3.38,0,3.46,0,3.58s0,.45,0,.67a8,8,0,0,0,.43,2.35A3,3,0,0,1,225.55,49.72Z" transform="translate(-15.62 -4.55)" fill="#231f20"/>
          <path d="M230.51,48.91a10.29,10.29,0,0,1-1.39.46c-.33.09-.69.14-1,.22s-.51.08-.75.11a7.41,7.41,0,0,1-.14-1.08c0-.27,0-.52,0-.77,0-.51,0-1,0-1.55s0-.6,0-1.21c0-.36,0-1.79,0-2.24a6.76,6.76,0,0,1,1.37-.19c0,.19-.05.86-.06,1-.06,1.05-.1,2.08-.09,3.12,0,.46,0,.92,0,1.36a5.3,5.3,0,0,0,1.47-.43,1.22,1.22,0,0,0,.24-.1A7.15,7.15,0,0,1,230.51,48.91Z" transform="translate(-15.62 -4.55)" fill="#231f20"/>
          <path d="M233.61,48.21l-1.4.25c-.1.5-.24,1.13-.27,1.25a4.65,4.65,0,0,1-1.34-.36c.13-.33.6-2.13.68-2.48a24.47,24.47,0,0,0,.69-4.12l.92-.18c.21,0,.54-.1.79-.12.09.4.1.79.19,1.19.19.74.35,1.49.5,2.23.09.42.2.82.32,1.21s.35,1.49.46,1.94a8.86,8.86,0,0,1-1.32.36C233.76,49.05,233.69,48.63,233.61,48.21Zm-1.12-1.12.86-.12c-.09-.52-.37-1.73-.45-2.22C232.83,45.35,232.55,46.52,232.49,47.09Z" transform="translate(-15.62 -4.55)" fill="#231f20"/>
          <path d="M239.52,47.81a1.68,1.68,0,0,1-.94,1.51,2.82,2.82,0,0,1-1,.23,2.87,2.87,0,0,1-1.19-.13,2,2,0,0,1-.69-.49,1.62,1.62,0,0,1-.23-.29,1.85,1.85,0,0,1-.16-.75,1.37,1.37,0,0,1,.08-.51,8.33,8.33,0,0,1,1.27,0,.73.73,0,0,0,.09.63.87.87,0,0,0,.63.25,1,1,0,0,0,.71-.26c.2-.22-.49-.57-.86-.8a14.84,14.84,0,0,1-1.27-.86,1.86,1.86,0,0,1-.53-1.42,2.13,2.13,0,0,1,.08-.64,2.82,2.82,0,0,1,2.39-2,1.09,1.09,0,0,1,1,.54,2.39,2.39,0,0,1,.19,1.13,10.53,10.53,0,0,1-.07,1.35l-.54,0c-.31,0-.52,0-.68,0,0-.12.05-1,.05-1.08a2.2,2.2,0,0,0-.06-.5,1.48,1.48,0,0,0-1,.74,1.3,1.3,0,0,0-.07.4c0,.54.52.7,1.06,1.1a12.91,12.91,0,0,1,1.21.83A1.33,1.33,0,0,1,239.52,47.81Z" transform="translate(-15.62 -4.55)" fill="#231f20"/>
          <path d="M244.07,47.75a1.69,1.69,0,0,1-.94,1.51,2.82,2.82,0,0,1-.95.23,2.87,2.87,0,0,1-1.19-.13,1.91,1.91,0,0,1-.69-.49,1.62,1.62,0,0,1-.23-.29,1.7,1.7,0,0,1-.16-.75,1.19,1.19,0,0,1,.07-.51,8.43,8.43,0,0,1,1.28,0,.73.73,0,0,0,.09.63.82.82,0,0,0,.62.25,1,1,0,0,0,.72-.26c.2-.22-.49-.57-.86-.8a14.84,14.84,0,0,1-1.27-.86,1.91,1.91,0,0,1-.54-1.42,2.13,2.13,0,0,1,.09-.64,2.82,2.82,0,0,1,2.39-2,1.08,1.08,0,0,1,1,.54,2.28,2.28,0,0,1,.2,1.13,10.44,10.44,0,0,1-.07,1.35l-.54,0c-.31,0-.52,0-.68,0,0-.12.05-1,0-1.08a1.79,1.79,0,0,0,0-.5,1.48,1.48,0,0,0-1,.74,1.3,1.3,0,0,0-.07.4c0,.54.52.7,1.06,1.1a14.38,14.38,0,0,1,1.21.83A1.33,1.33,0,0,1,244.07,47.75Z" transform="translate(-15.62 -4.55)" fill="#231f20"/>
          <path d="M247.69,48.87c-.77.22-1.51.33-2.24.49l-.61.15a5.27,5.27,0,0,1,0-.56c0-.14,0-.29,0-.43,0-.66,0-1.38.06-2,0-.21,0-.55,0-1,0-.25,0-.54,0-.82a2.84,2.84,0,0,1,0-.42l-.44.13a6.08,6.08,0,0,1-.16-1.35c.28-.08.49-.13.75-.22s.78-.19,1.17-.28,1.26-.26,1.78-.39a10.71,10.71,0,0,1,.16,1.33,4.26,4.26,0,0,0-.49.1c-.58.14-.9.2-1.55.37v.23c0,.55,0,.68,0,1.23v.21l.61-.14c.41-.09.49-.09.94-.17a7.69,7.69,0,0,1,.09,1.38c-.23,0-.49,0-.65.09-.51.1-.61.09-1,.2a5.18,5.18,0,0,0,0,.56c0,.1,0,.22,0,.39l1.23-.28c.49-.13.41-.11.86-.21,0,.31,0,.79,0,1.28A4.62,4.62,0,0,0,247.69,48.87Z" transform="translate(-15.62 -4.55)" fill="#231f20"/>
          <path d="M251.1,48.5c0-.09-.13-.3-.3-.77a8.94,8.94,0,0,0-.56-1.13c-.07-.13-.18-.27-.24-.39,0,.31,0,.62,0,.92,0,.53,0,1,.08,1.57q0,.22,0,.54a8.51,8.51,0,0,1-1.26.09c0-.48,0-1,0-1.45,0-.66,0-1.14-.06-1.8s0-1.15,0-1.73c0-.28,0-1.05-.05-1.44.39-.08.78-.19,1.22-.27a9.27,9.27,0,0,0,1.11,2.82c0-.82-.06-1.66-.12-2.52,0-.2,0-.49,0-.67a8.91,8.91,0,0,1,1.27-.2c0,1.16,0,2.47,0,3.79a23.11,23.11,0,0,0,.27,2.93,7.09,7.09,0,0,1-1.17.33Z" transform="translate(-15.62 -4.55)" fill="#231f20"/>
        </g>
      </g>
      <path d="M53.14,54.58a6.44,6.44,0,1,0-5.54-7.22,6.44,6.44,0,0,0,5.54,7.22" transform="translate(-15.62 -4.55)" fill="#d43b55"/>
    </g>
  </g>
</svg>
