<svg id="Layer_1" data-name="Layer 1" xmlns="http://www.w3.org/2000/svg" viewBox="0 0 1088 995"><defs><style>.cls-1{fill:none;stroke:#000;stroke-miterlimit:10;stroke-width:7px;}.cls-2{fill:#fff;}.cls-3{font-size:50px;font-family:Roboto-Regular, Roboto;}</style></defs><path class="cls-1" d="M398.5,480.5c5.24-26.55,23.77-102.2,92-166,73.7-68.92,158-79.69,184-82"/><path class="cls-1" d="M373.77,490.1c3.32-26.86,16.36-103.64,79.83-172.19,68.56-74,151.87-90.83,177.63-95"/><path class="cls-1" d="M599.5,767.5c-17.24-2.93-100.24-18.9-158-97-56-75.79-49-156.93-47-175"/><path class="cls-1" d="M582.5,784.5c-17.24-2.93-100.24-18.9-158-97-56-75.79-49-156.93-47-175"/><path class="cls-1" d="M948.5,537.5c-93.77-2.16-192.63-7.2-296-16-82-7-160.76-15.82-236-26"/><path class="cls-1" d="M948.5,517.5c-93.77-2.16-192.63-7.2-296-16-82-7-160.76-15.82-236-26"/><path class="cls-1" d="M945.5,510.5a457,457,0,0,0-70-129c-63.91-82.44-141-122.82-183-141"/><path class="cls-1" d="M960.5,495.5a457,457,0,0,0-70-129c-63.91-82.44-141-122.82-183-141"/><path class="cls-1" d="M622.5,771.5c16.37,4.75,104.91,28.72,194-22,105.48-60,122.29-173.88,124-187"/><path class="cls-1" d="M640.5,789.5c16.37,4.75,104.91,28.72,194-22,105.48-60,122.29-173.88,124-187"/><path class="cls-1" d="M599.5,788.5c-122.4,64.77-271.39,45.72-369-46-92.13-86.57-121.92-222.3-80-333,56.31-148.71,217.17-186.65,278-201,99.75-23.53,184.72-8.11,231,4"/><path class="cls-1" d="M574.5,810.64c-122.4,69.62-271.39,49.15-369-49.45-92.13-93.05-121.92-239-80-357.94,56.31-159.85,217.17-200.64,278-216.06,99.75-25.29,184.72-8.72,231,4.3"/><rect class="cls-2" x="527.5" y="695.5" width="144" height="144" rx="56.34"/><path d="M615.16,699A52.89,52.89,0,0,1,668,751.84v31.32A52.89,52.89,0,0,1,615.16,836H583.84A52.89,52.89,0,0,1,531,783.16V751.84A52.89,52.89,0,0,1,583.84,699h31.32m0-7H583.84A59.84,59.84,0,0,0,524,751.84v31.32A59.84,59.84,0,0,0,583.84,843h31.32A59.84,59.84,0,0,0,675,783.16V751.84A59.84,59.84,0,0,0,615.16,692Z"/><rect class="cls-2" x="326.5" y="415.5" width="144" height="144" rx="56.34"/><path d="M414.16,419A52.89,52.89,0,0,1,467,471.84v31.32A52.89,52.89,0,0,1,414.16,556H382.84A52.89,52.89,0,0,1,330,503.16V471.84A52.89,52.89,0,0,1,382.84,419h31.32m0-7H382.84A59.84,59.84,0,0,0,323,471.84v31.32A59.84,59.84,0,0,0,382.84,563h31.32A59.84,59.84,0,0,0,474,503.16V471.84A59.84,59.84,0,0,0,414.16,412Z"/><rect class="cls-2" x="876.5" y="465.5" width="144" height="144" rx="56.34"/><path d="M964.16,469A52.89,52.89,0,0,1,1017,521.84v31.32A52.89,52.89,0,0,1,964.16,606H932.84A52.89,52.89,0,0,1,880,553.16V521.84A52.89,52.89,0,0,1,932.84,469h31.32m0-7H932.84A59.84,59.84,0,0,0,873,521.84v31.32A59.84,59.84,0,0,0,932.84,613h31.32A59.84,59.84,0,0,0,1024,553.16V521.84A59.84,59.84,0,0,0,964.16,462Z"/><rect class="cls-2" x="602.5" y="160.5" width="144" height="144" rx="56.34"/><path d="M690.16,164A52.89,52.89,0,0,1,743,216.84v31.32A52.89,52.89,0,0,1,690.16,301H658.84A52.89,52.89,0,0,1,606,248.16V216.84A52.89,52.89,0,0,1,658.84,164h31.32m0-7H658.84A59.84,59.84,0,0,0,599,216.84v31.32A59.84,59.84,0,0,0,658.84,308h31.32A59.84,59.84,0,0,0,750,248.16V216.84A59.84,59.84,0,0,0,690.16,157Z"/><text class="cls-3" transform="translate(378.56 502.8)">A</text><text class="cls-3" transform="translate(658.89 248.59)">B</text><text class="cls-3" transform="translate(582.63 786.59)">C</text><text class="cls-3" transform="translate(928.92 555.59)">D</text></svg>